Coordinates
version=1
nRows=8
nColumns=63
inDegrees=yes

Units are S.I. units (second, meters, Newtons, ...)
If the header above contains a line with 'inDegrees', this indicates whether rotational values are in degrees (yes) or radians (no).

endheader
time	pelvis_tilt	pelvis_list	pelvis_rotation	pelvis_tx	pelvis_ty	pelvis_tz	hip_flexion_r	hip_adduction_r	hip_rotation_r	knee_angle_r	knee_angle_r_beta	ankle_angle_r	subtalar_angle_r	mtp_angle_r	hip_flexion_l	hip_adduction_l	hip_rotation_l	knee_angle_l	knee_angle_l_beta	ankle_angle_l	subtalar_angle_l	mtp_angle_l	L5_S1_Flex_Ext	L5_S1_Lat_Bending	L5_S1_axial_rotation	L4_L5_Flex_Ext	L4_L5_Lat_Bending	L4_L5_axial_rotation	L3_L4_Flex_Ext	L3_L4_Lat_Bending	L3_L4_axial_rotation	L2_L3_Flex_Ext	L2_L3_Lat_Bending	L2_L3_axial_rotation	L1_L2_Flex_Ext	L1_L2_Lat_Bending	L1_L2_axial_rotation	L1_T12_Flex_Ext	L1_T12_Lat_Bending	L1_T12_axial_rotation	Abs_r3	Abs_r2	Abs_r1	Abs_t1	Abs_t2	neck_flexion	neck_bending	neck_rotation	arm_flex_r	arm_add_r	arm_rot_r	elbow_flex_r	pro_sup_r	wrist_flex_r	wrist_dev_r	arm_flex_l	arm_add_l	arm_rot_l	elbow_flex_l	pro_sup_l	wrist_flex_l	wrist_dev_l
      2.65000000	     -8.58708867	    -14.02903635	     69.15057055	      0.19541850	      0.86356156	      0.55609177	     15.50131222	      0.96679213	      8.06698531	      2.73354907	      0.04770943	     23.22044048	     -6.01915182	      0.00000000	     17.16244527	     -1.70197763	      7.47324085	      4.66616679	      0.08143997	     28.32546960	     -6.60876527	      0.00000000	      1.30315177	      0.43068516	      0.85968373	      2.42008315	      0.57281126	      0.91341397	      2.14094804	      1.04716790	      0.91341397	      1.48937216	      1.04716790	      0.75222327	      1.21010673	      0.87825318	      0.69849303	      0.74462092	      0.66713131	      0.64476280	      9.30828277	      4.87199667	      4.78130301	      0.00000000	      0.00000000	     28.49854597	     22.33013562	     43.69621008	     88.97320835	     -2.68393341	     83.94264571	      8.84607949	      3.05748395	     -8.21901478	      5.12500879	     75.03303836	     -0.78945436	     13.65748067	     29.75828597	     86.93063875	    -19.56313376	      6.18061842
      2.66666667	     -8.52765880	    -13.75740094	     69.33302718	      0.19378541	      0.86367156	      0.55893853	     15.68778175	      0.88743259	      7.69212923	      3.19300160	      0.05572839	     23.59820113	     -5.76364098	      0.00000000	     17.47724178	     -1.54344671	      7.23707565	      5.28633074	      0.09226388	     28.48716438	     -6.55763754	      0.00000000	      1.23879205	      0.42911898	      0.51576989	      2.30056071	      0.57072824	      0.54800551	      2.03521145	      1.04335988	      0.54800551	      1.41581543	      1.04335988	      0.45129865	      1.15034229	      0.87505942	      0.41906303	      0.70784577	      0.66470530	      0.38682742	      8.84856770	      4.85427970	      2.86855739	      0.00000000	      0.00000000	     28.49298529	     22.74333608	     43.28124520	     87.56722701	     -1.21783433	     85.18009324	      8.76066640	      3.56885983	     -9.00973631	      7.07671846	     74.11746880	     -2.16769402	     12.57914080	     29.86619740	     85.87466939	    -19.35129954	      7.38731803
      2.68333333	     -8.44368617	    -13.64942294	     69.34873362	      0.19237724	      0.86368263	      0.56149200	     16.27137140	      0.83247933	      4.24844333	      4.20445506	      0.07338158	     24.94645119	     -1.36839291	      0.00000000	     17.96428082	     -1.62268707	      5.20432669	      6.03981432	      0.10541465	     29.34111813	     -3.86458738	      0.00000000	      1.20411180	      0.44456627	      0.33746075	      2.23615603	      0.59127314	      0.35855205	      1.97823528	      1.08091844	      0.35855205	      1.37617938	      1.08091844	      0.29527816	      1.11813822	      0.90655954	      0.27418686	      0.68802948	      0.68863316	      0.25309556	      8.60085019	      5.02902259	      1.87685546	      0.00000000	      0.00000000	     28.49004079	     22.41171425	     43.12622478	     86.62373995	      0.42544997	     97.08670067	      6.50781715	      2.91736437	     -9.61031040	      8.02799339	     72.75785734	     -2.47432200	      9.34010700	     30.05517681	     85.24856076	    -17.90406883	      7.85030361
      2.70000000	     -8.48994163	    -13.53736719	     69.37486260	      0.19138933	      0.86325235	      0.56327542	     16.64990820	      0.73617133	      4.05777322	      4.92179521	      0.08590153	     25.38314226	     -1.46772186	      0.00000000	     18.30496841	     -1.49450623	      5.13531376	      6.56800937	      0.11463339	     29.55605283	     -3.86708031	      0.00000000	      1.18733960	      0.44128677	      0.26660994	      2.20500837	      0.58691141	      0.28327306	      1.95068023	      1.07294466	      0.28327306	      1.35701043	      1.07294466	      0.23328370	      1.10256355	      0.89987199	      0.21662057	      0.67844585	      0.68355321	      0.19995745	      8.48104804	      4.99192424	      1.48280449	      0.00000000	      0.00000000	     28.48980888	     21.91764818	     43.19724089	     85.26308355	      0.96220999	     97.72787094	      6.33142445	      3.12405476	    -10.31860503	      7.72259821	     71.82363011	     -2.81835672	      9.44803723	     29.84001262	     84.91996394	    -17.86747672	      8.11402861
      2.71666667	     -8.71383083	    -13.67361986	     69.23219090	      0.19063376	      0.86231220	      0.56494050	     17.48464525	      0.45717517	      1.38841652	      5.98203468	      0.10440620	     26.47948615	      1.93912575	      0.00000000	     18.92815768	     -1.41720568	      3.52321282	      7.13093757	      0.12445834	     30.10629191	     -2.00136046	      0.00000000	      1.22100893	      0.42816485	      0.29641309	      2.26753568	      0.56945926	      0.31493891	      2.00599556	      1.04104003	      0.31493891	      1.39549110	      1.04104003	      0.25936145	      1.13382889	      0.87311377	      0.24083564	      0.69768450	      0.66322736	      0.22230982	      8.72154466	      4.84348646	      1.64856069	      0.00000000	      0.00000000	     28.49093969	     21.49932842	     43.44300740	     84.12477535	      1.79840375	    110.28152575	      4.15747984	      2.60009204	    -11.47999568	      7.55223583	     71.24750621	     -3.13283601	     11.63693981	     29.20432448	     83.84412680	    -17.98355448	      7.73535940
      2.73333333	     -9.02052414	    -13.72516923	     68.93014442	      0.19034814	      0.86114372	      0.56614497	     18.09671223	      0.19067607	      0.55735987	      6.82979723	      0.11920245	     27.05715032	      3.10677062	      0.00000000	     19.26139876	     -1.23648902	      2.97236778	      7.38223596	      0.12884432	     30.37223081	     -1.64251597	      0.00000000	      1.25254372	      0.40201983	      0.36486782	      2.32609895	      0.53468638	      0.38767206	      2.05780408	      0.97747103	      0.38767206	      1.43153222	      0.97747103	      0.31925934	      1.16311210	      0.81979885	      0.29645510	      0.71570348	      0.62272872	      0.27365087	      8.94679456	      4.54772877	      2.02928536	      0.00000000	      0.00000000	     28.49255647	     21.14268787	     43.64895384	     82.98001979	      2.12293706	    116.95715958	      3.23176339	      3.03290450	    -12.79678420	      6.62227128	     70.89328536	     -3.53532508	     14.68880416	     28.48538459	     84.84806676	    -18.57357935	      7.24915478
      2.75000000	     -9.35707224	    -13.72722448	     68.55939812	      0.19027396	      0.85996948	      0.56733354	     18.62654424	     -0.12266067	     -0.40714796	      7.65089534	      0.13353331	     27.46220731	      4.53998424	      0.00000000	     19.52220629	     -1.05064602	      2.28924974	      7.60232335	      0.13268557	     30.70339120	     -1.18041139	      0.00000000	      1.27710007	      0.36708028	      0.44741149	      2.37170254	      0.48821677	      0.47537471	      2.09814771	      0.89251899	      0.47537471	      1.45959767	      0.89251899	      0.39148506	      1.18591513	      0.74855010	      0.36352184	      0.72973498	      0.56860735	      0.33555862	      9.12219810	      4.15248552	      2.48836850	      0.00000000	      0.00000000	     28.49351048	     20.97240823	     43.73844933	     82.00966648	      2.27466724	    123.63930128	      2.43513828	      3.39477303	    -13.96770446	      5.57704241	     70.70586131	     -3.98454781	     18.13612522	     27.75061941	     85.60169972	    -19.10884929	      6.35864954
      2.76666667	     -9.71584236	    -13.59866723	     68.08967011	      0.19046254	      0.85903848	      0.56855194	     18.96334207	     -0.46932297	     -1.08030124	      8.35841687	      0.14588189	     27.57728736	      5.74781005	      0.00000000	     19.58255679	     -0.84703950	      1.50726449	      7.71717725	      0.13469015	     31.05226098	     -0.65479535	      0.00000000	      1.28080236	      0.32369060	      0.54942184	      2.37857806	      0.43050850	      0.58376071	      2.10423019	      0.78702133	      0.58376071	      1.46382901	      0.78702133	      0.48074411	      1.18935307	      0.66006987	      0.44640525	      0.73185047	      0.50139674	      0.41206638	      9.14864316	      3.66165281	      3.05571946	      0.00000000	      0.00000000	     28.49211883	     20.94077999	     43.69871907	     81.29362963	      2.26683816	    126.76575097	      2.15377424	      3.69475443	    -15.03831969	      4.36379792	     70.58648880	     -4.43483473	     21.58543187	     27.14616780	     86.22010268	    -19.78446368	      5.34234703
